<svg width="2104" height="446" viewBox="0 0 2104 446" fill="none" xmlns="http://www.w3.org/2000/svg">
<path d="M645.842 311.502V280.145L762.258 170.204H649.65V126.659H846.555V159.667L731.027 269.735H851.252V311.502H645.842Z" fill="white"/>
<path d="M857.092 126.659H914.221L973.381 251.2C974.227 252.723 974.82 253.866 975.158 254.627C975.497 255.305 976.174 256.616 977.189 258.563C978.036 256.786 978.628 255.558 978.967 254.881C979.305 254.204 979.94 252.977 980.871 251.2L1039.52 126.659H1095L1005.5 312.645H946.086L857.092 126.659Z" fill="white"/>
<path d="M1109.47 311.502V126.659H1282.89V168.934H1161.27V200.545H1272.1V236.6H1161.27V271.004H1285.05V311.502H1109.47Z" fill="white"/>
<path d="M1317.93 311.502V126.659H1371.63L1459.48 235.838C1460.58 237.193 1461.39 238.208 1461.9 238.885C1462.4 239.478 1462.87 240.112 1463.29 240.79H1463.8C1463.8 238.928 1463.8 237.446 1463.8 236.346C1463.8 235.246 1463.8 233.765 1463.8 231.903V126.659H1510.77V311.502H1458.72L1369.6 200.799C1368.42 199.276 1367.53 198.133 1366.94 197.372C1366.34 196.61 1365.75 195.721 1365.16 194.706H1364.78C1364.78 195.637 1364.78 196.568 1364.78 197.499C1364.78 198.43 1364.78 199.191 1364.78 199.784L1365.03 311.502H1317.93Z" fill="white"/>
<path d="M1538.2 218.573V217.049C1538.2 185.988 1550.26 162.544 1574.38 146.717C1598.58 130.806 1628.37 122.85 1663.75 122.85C1699.21 122.85 1729.05 130.806 1753.25 146.717C1777.54 162.544 1789.69 185.988 1789.69 217.049V218.573C1789.69 250.903 1777.54 275.109 1753.25 291.19C1729.05 307.271 1699.21 315.311 1663.75 315.311C1628.37 315.311 1598.58 307.271 1574.38 291.19C1550.26 275.109 1538.2 250.903 1538.2 218.573ZM1596.21 219.208C1596.21 238.758 1602.43 253.443 1614.88 263.26C1627.32 273.078 1643.69 278.114 1664.01 278.368C1684.23 278.706 1700.57 273.84 1713.01 263.768C1725.54 253.612 1731.8 238.885 1731.8 219.588V217.176C1731.8 198.726 1725.58 184.846 1713.14 175.536C1700.7 166.226 1684.32 161.402 1664.01 161.063C1643.52 160.809 1627.1 165.506 1614.75 175.155C1602.39 184.719 1596.21 198.683 1596.21 217.049V219.208Z" fill="white"/>
<path d="M1786.01 311.502L1880.33 125.897H1936.83L2030.52 311.502H1967.17L1911.95 192.167C1910.76 189.627 1909.83 187.765 1909.15 186.581C1908.48 185.311 1907.8 183.999 1907.12 182.645H1906.87C1906.19 184.084 1905.56 185.396 1904.96 186.581C1904.37 187.765 1903.44 189.627 1902.17 192.167L1846.82 311.502H1786.01ZM1833.87 275.321L1849.99 239.647H1966.28L1981.9 275.321H1833.87Z" fill="white"/>
<path d="M2046.9 311.502V126.659H2103.14V311.502H2046.9Z" fill="white"/>
<path d="M512 190.005V254.005L128 350.005L256 382.005L351.015 358.251L479.015 390.251L256 446.005L0 382.005V318.005L384 222.005L288.984 198.251L416.984 166.251L512 190.005Z" fill="white"/>
<path d="M512 318.005V382.005L288.984 326.251L416.984 294.251L512 318.005Z" fill="white"/>
<path d="M512 62.0049V126.005L128 222.005L223.015 245.758L95.0146 277.758L0 254.005V190.005L384 94.0049L264.017 64.0088V0.00878906L512 62.0049Z" fill="white"/>
<path d="M248.017 64L128 94.0049L223.015 117.758L95.0146 149.758L0 126.005V62.0049L248.017 0V64Z" fill="white"/>
</svg>
